<svg width="6278" height="883" viewBox="0 0 6278 883" fill="none" xmlns="http://www.w3.org/2000/svg">
<path d="M5212.17 875C5192.57 865.2 5174.17 862.4 5124.37 860.8C5079.17 859.6 5057.97 861.4 5040.17 868.2C5025.17 873.8 4992.37 878.4 4956.37 879.6C4933.97 880.4 4922.97 880 4919.97 878.4C4912.37 874.4 4896.77 872.4 4845.17 869.2C4733.97 862.2 4706.17 856.6 4682.97 836.6C4665.17 821.2 4661.77 820.4 4643.57 827.4C4636.57 830.2 4628.57 830.8 4606.57 830.8C4575.57 830.8 4554.37 827.2 4534.57 818.8C4512.17 809.2 4490.57 802.2 4483.37 802.2C4475.57 802.2 4454.77 795.8 4443.57 790.2C4430.77 783.8 4414.97 780 4392.17 778.2C4365.57 776.2 4332.37 767.8 4304.37 756C4265.37 739.6 4251.77 736.4 4221.57 736.2C4199.37 736 4177.97 731.6 4159.57 723.2C4143.97 716.2 4142.37 715.8 4128.77 717C4115.37 718.2 4113.97 718 4104.57 712.2C4099.17 708.8 4088.57 701.4 4081.17 695.6C4073.77 689.8 4060.77 681 4052.17 675.8C4028.17 661.6 3945.97 622.6 3932.77 619.2C3926.17 617.6 3917.57 614 3913.37 611.2C3893.17 597 3828.17 535 3803.17 505.6C3794.17 495 3789.57 487.8 3788.57 482.6C3787.97 478.6 3783.77 467.4 3779.37 458C3775.17 448.6 3771.57 438 3771.57 434.4C3771.57 431 3775.97 418.4 3781.37 406.6C3791.77 383.6 3797.57 366.6 3797.57 358.4C3797.57 350.2 3808.17 334 3821.57 321.6C3847.77 297.2 3876.77 281.6 3915.17 271.2C3939.97 264.6 3948.57 261.4 3959.57 255.2C3962.37 253.6 3967.77 252.2 3971.77 252.2C3987.97 252.2 3999.97 248.2 4015.17 238C4033.77 225.6 4088.77 198.2 4117.57 186.8C4129.17 182.4 4144.57 177.8 4151.77 176.6C4168.57 174 4177.37 169.4 4192.97 155.2C4209.57 140.4 4225.57 130.8 4239.37 128.2C4245.57 126.8 4256.17 122.8 4262.97 119C4271.77 114 4276.77 112.6 4280.97 113.4C4287.17 114.6 4304.37 109 4330.57 97.4C4350.57 88.6 4377.17 81 4400.37 77.2C4430.77 72.2 4436.77 69.4 4452.57 52.8C4469.17 35.6 4471.17 35.2 4495.57 44C4504.37 47.2 4516.37 51 4522.17 52.2C4533.97 55 4538.17 53.6 4554.17 42C4558.57 38.8 4565.37 35.2 4569.37 34C4573.37 32.8 4599.17 31.2 4626.57 30.4C4683.37 28.6 4688.17 27.6 4696.37 14.6C4704.57 1.40004 4706.97 1.19999 4786.57 1.79999C4863.77 2.19999 4899.17 4.40004 4918.77 9.60004L4931.57 13L4942.17 7.60004C4954.57 1.40004 4960.57 1 4981.57 5C5008.57 10.2 5053.77 12.6 5103.97 11.8C5150.57 10.8 5153.17 10.6 5167.77 5.40002L5183.17 0L5195.17 5C5211.77 12 5227.77 14.2 5262.57 14.2C5295.97 14.2 5305.77 12.6 5312.57 6.20001C5322.97 -3.59999 5343.17 -0.599964 5381.57 16.6C5417.57 32.6 5441.97 38.8 5523.57 53C5557.97 59 5576.37 64.4 5585.77 71.2C5604.77 85 5617.57 88.4 5689.37 97.2C5768.57 107 5772.77 108.4 5802.77 131.4C5823.17 147 5835.17 153.2 5849.77 155.8C5864.97 158.6 5875.57 163.2 5918.97 185C5962.37 206.8 5976.57 211.6 6005.57 214.2C6032.77 216.8 6034.57 217.2 6037.17 223C6041.57 232.6 6079.97 258 6094.97 261.2C6099.77 262.2 6104.37 261.2 6112.77 257.4C6131.37 248.8 6139.57 251.2 6139.57 265.2C6139.57 272.6 6142.57 277.8 6154.17 289.6C6159.57 295.2 6166.57 304.2 6169.37 309.6C6172.17 314.8 6176.77 320.2 6179.57 321.4C6195.97 328.8 6196.57 329.4 6197.77 336.2C6200.17 351.4 6217.77 380 6251.17 424.2C6286.17 470 6286.37 480.4 6252.77 496C6240.57 501.6 6235.97 505 6233.97 509.2C6232.37 512.4 6223.17 525 6213.37 537.4C6194.97 560.6 6183.57 579.4 6183.57 587C6183.57 598.8 6164.37 607 6130.57 609.8C6107.37 611.8 6100.17 614.6 6084.57 628.4C6070.57 640.6 6058.17 647 6040.37 651.4C6026.17 654.8 6008.77 662.4 6006.57 666.2C6004.57 669.4 5990.17 676.2 5985.17 676.2C5973.97 676.2 5964.37 680.8 5955.17 690.4C5944.57 701.6 5935.37 706.2 5923.17 706.2C5907.97 706.2 5887.77 711.8 5865.77 722C5853.97 727.4 5836.77 734.2 5827.77 737C5807.37 743.4 5798.57 747.8 5778.57 762C5759.97 775 5746.97 780 5731.57 780.2C5716.17 780.2 5697.77 785 5681.97 793C5663.37 802.4 5658.57 803 5643.57 798.4C5617.57 790.8 5612.17 791.2 5564.57 806.2C5547.17 811.6 5526.17 817.6 5518.17 819.2C5504.97 822 5502.77 822 5495.17 819C5480.97 813.6 5477.17 814.2 5473.37 822.4C5467.17 835 5466.37 835.4 5431.77 834.2C5381.77 832.6 5357.17 833.2 5348.57 836C5344.17 837.4 5325.57 846.2 5307.17 855.4C5269.77 874.2 5248.17 882.2 5235.17 882.2C5229.17 882.2 5221.97 880 5212.17 875ZM4674.97 729C4690.17 717.8 4688.17 704.2 4668.57 687C4651.17 671.6 4650.17 668.8 4656.57 649.4C4662.97 629.6 4661.97 626 4644.57 607.2C4625.97 587 4624.57 583.6 4624.57 556.8C4624.57 536.8 4624.97 534 4629.17 528.4C4634.57 521 4634.57 519.4 4629.57 511C4622.37 499.4 4619.57 479.6 4617.37 422.4C4615.77 383.4 4615.77 363 4617.37 351.6C4620.97 324.8 4620.17 308 4614.57 293.2C4609.57 279.8 4609.77 276.8 4615.97 268.2C4617.97 265.4 4620.77 257 4622.37 249.4C4625.77 234 4628.57 230.2 4647.17 217C4662.17 206.2 4665.57 200 4667.77 180C4668.77 170.8 4671.97 159.2 4675.37 151C4678.97 142.6 4680.57 136.4 4679.37 135.4C4678.37 134.2 4660.97 135.2 4633.37 138C4584.17 143.2 4567.77 143 4541.37 136.2C4519.37 130.6 4515.57 131.2 4510.97 141.2C4503.37 157.4 4496.17 161.4 4486.37 155C4481.77 151.8 4480.57 152 4467.97 156C4452.77 161 4396.37 190.6 4379.37 202.6C4370.37 208.8 4365.17 210.8 4354.77 212.4C4347.37 213.4 4336.17 216 4329.97 218.4C4302.57 228.2 4300.57 228.6 4279.57 228.4C4267.97 228.4 4257.17 228.8 4255.17 229.4C4253.37 230 4250.57 233.6 4248.97 237.8C4243.37 251.8 4237.17 254.4 4199.57 258.2C4145.77 263.8 4102.57 281.2 4071.57 309.8C4055.97 324 4044.37 330 4031.97 330.2C4012.37 330.2 3992.77 340 3939.57 375.8C3922.57 387.4 3903.57 399 3897.57 402C3889.57 405.8 3885.57 409.2 3883.17 414.2C3875.97 428.2 3880.37 449.2 3892.77 460.4C3906.17 472.8 3927.77 483.6 3945.97 487.2C3961.37 490.2 3988.37 521.2 3994.97 543.2C3997.97 553.4 4009.37 558 4036.97 560.2C4049.97 561.4 4067.77 563.6 4076.57 565.4C4107.57 571.4 4141.57 583.4 4141.57 588C4141.57 589.8 4152.57 595.4 4171.57 603.4C4176.57 605.4 4186.37 611.6 4193.57 617C4213.77 632.4 4216.57 633 4241.97 630C4266.77 627.2 4267.57 627.4 4272.57 642.2C4277.37 656.6 4278.97 657.4 4293.97 650.8C4304.37 646.2 4309.17 645.4 4322.57 645.4C4349.17 645.8 4376.77 657 4385.37 670.8C4391.77 681.2 4396.57 682.4 4433.57 681.8C4469.77 681.2 4465.97 680.2 4495.57 696.6C4519.97 709.8 4535.57 714.2 4568.57 716.4C4593.97 718 4613.37 721.4 4619.57 725.2C4634.97 734.6 4664.57 736.8 4674.97 729ZM5526.57 687.2C5529.37 684.6 5531.57 681 5531.57 679.4C5531.57 674.6 5541.57 664.2 5546.17 664.2C5552.37 664 5566.17 657.4 5575.17 650.2C5585.97 641.6 5592.77 641.2 5621.37 647C5660.37 655.2 5663.37 654.6 5697.77 632.8C5708.17 626.2 5718.77 620 5721.37 619.2C5729.17 616.8 5742.37 617.8 5764.77 622.4C5784.57 626.4 5786.37 626.4 5794.17 623.4C5798.77 621.6 5808.17 615.6 5815.17 610C5835.97 593.2 5840.57 592 5884.37 590.2C5928.57 588.4 5933.57 587 5953.97 572C5970.77 559.4 5979.57 556.2 5991.97 557.6C6004.97 559.2 6010.17 557.4 6021.57 547.2C6033.57 536.6 6035.97 535.2 6051.37 530.4C6063.77 526.6 6087.57 513.6 6108.57 499.4C6125.97 487.6 6157.37 472.2 6163.77 472.2C6173.37 472.2 6175.57 470.4 6175.57 462.4C6175.57 458.2 6174.17 450.2 6172.37 444.4C6168.57 431.6 6161.17 426.2 6147.37 426.2C6135.97 426.2 6110.57 419.8 6099.57 414.2C6085.77 407.2 6074.37 395 6066.37 379.2C6058.57 363.2 6044.37 348 6032.57 343C6028.77 341.4 6019.97 340.2 6013.17 340.2C5995.77 340.2 5988.57 336.2 5978.37 320.2C5960.97 293.6 5956.37 287.8 5945.77 280.2C5930.97 269.4 5917.97 265 5884.17 259C5853.77 253.8 5846.97 251.4 5838.57 243L5833.37 237.8L5805.77 239.2C5773.37 240.8 5771.17 240.2 5750.77 223.4C5725.97 203 5716.57 200 5657.57 195.2C5587.57 189.4 5581.77 188 5546.97 168.4C5531.57 159.6 5518.17 159 5510.17 166.6C5501.97 174.2 5496.97 176.2 5482.77 177.6C5466.77 179 5453.37 175.8 5442.77 168C5433.97 161.6 5428.57 160.6 5426.77 165.2C5425.57 168.8 5427.57 174.6 5435.57 190.8C5441.97 203.6 5444.57 214.6 5447.17 240.4C5448.37 251.2 5450.57 260.6 5453.17 265.4C5465.57 288.6 5464.57 276.6 5464.57 398.2C5464.37 527.8 5463.77 533.2 5448.57 554C5442.97 561.4 5441.97 569.8 5446.37 571.4C5447.97 572 5450.17 575 5451.57 578.2C5455.37 587.4 5450.97 602.6 5434.77 635.4C5426.77 651.8 5419.57 667.6 5418.97 670.6C5416.17 681.2 5417.77 682 5443.17 681.8C5462.97 681.8 5468.97 682.4 5482.57 686.8C5491.57 689.8 5503.57 692 5510.17 692C5519.97 692.2 5522.57 691.4 5526.57 687.2Z" fill="white"/>
<path d="M1377.57 868.2C1371.77 863.2 1375.17 863.4 1296.57 863.2H1230.57L1213.77 857.8C1164.17 841.6 1059.77 831.6 1034.77 840.8C1023.57 844.8 1017.57 844.2 995.366 836.2C974.766 828.6 940.566 821.2 903.766 816.2C867.166 811.4 846.966 811.2 827.366 815.2C810.566 818.8 806.966 818 797.566 809.2C787.766 800 783.166 798 776.166 800C767.166 802.6 757.566 798.2 741.566 784.4C725.366 770.6 721.766 769.8 705.166 776.4C689.766 782.6 662.366 786.2 631.566 786.2C606.966 786 603.766 785.6 594.566 781.2C587.766 777.8 581.166 776.2 573.966 776.2C563.166 776.2 549.566 772 549.566 768.6C549.566 762.2 487.966 738 461.166 734C445.366 731.6 438.166 727.8 421.766 713.4C410.166 703 391.966 694 373.966 689.2C349.166 682.8 263.966 650.4 251.166 642.6C247.166 640.2 236.366 631.2 227.166 623C203.766 601.6 197.366 598.4 176.166 596.2C140.366 592.4 116.166 578.4 94.5664 549.2C81.3664 531.4 73.3664 525.6 54.7664 520C35.5664 514.2 31.5664 509.8 31.5664 493.6C31.5664 477.8 29.5664 475.8 13.1664 474.6C5.56641 474 0.766408 472.8 0.166408 471C-2.43359 464.2 26.1664 415.4 34.7664 412.2C37.5664 411 39.9664 408 40.5664 404.8C42.7664 395.2 46.1664 389.8 58.5664 376.6C65.3664 369.2 73.5664 357.6 77.5664 349.6C86.3664 331.8 102.766 317 147.166 287.4C164.566 275.8 185.766 260.4 194.566 253.2C203.366 245.8 214.566 237.8 219.566 235.2C230.766 229.6 255.366 221.8 276.566 217.2C297.366 212.6 313.166 205 330.966 190.6C356.366 170.2 393.566 152.6 420.566 148.2C444.166 144.2 451.366 141.8 464.166 133.6C477.566 124.8 495.966 118.2 506.566 118.2C517.966 118.2 533.166 114.2 540.566 109C550.566 102.2 564.566 98.8002 598.566 94.4002C632.966 90.0002 655.166 84.8002 679.766 75.2002C701.366 66.8002 717.566 64.0002 737.366 65.6002C756.566 67.0002 768.966 64.4002 791.366 54.0002C814.566 43.2002 826.966 40.4002 859.766 38.4002C890.366 36.4002 886.766 37.6002 922.566 18.2002C934.366 12.0002 934.966 11.8002 954.566 12.8002C970.366 13.6002 979.366 15.2002 997.566 21.2002C1040.17 34.8002 1046.17 35.2002 1067.57 27.0002C1075.37 24.0002 1087.57 23.4002 1154.57 22.2002C1230.37 20.8002 1232.97 20.6002 1244.57 16.0002C1256.57 11.2002 1256.57 11.2002 1341.57 11.2002C1427.37 11.2002 1452.97 12.6002 1484.57 19.4002C1507.57 24.4002 1524.37 23.8002 1539.57 17.2002C1548.57 13.2002 1556.17 11.4002 1563.97 11.4002C1574.37 11.2002 1575.97 11.8002 1582.57 18.2002C1586.57 22.0002 1592.57 30.2002 1595.57 36.4002C1604.57 54.0002 1604.77 54.0002 1627.37 46.4002C1640.17 42.0002 1652.97 39.4002 1664.17 38.4002C1713.17 34.6002 1768.57 46.6002 1799.17 67.8002C1823.17 84.2002 1859.37 98.2002 1888.37 102.2C1905.17 104.6 1919.77 111.2 1945.97 127.8C1992.17 157.2 2018.57 168 2068.97 178.2C2119.97 188.6 2155.37 199.6 2173.17 211C2183.57 217.6 2186.37 221.6 2185.97 229.2C2185.37 237.2 2186.77 238 2210.57 240.4C2230.97 242.4 2248.97 250 2276.17 267.8C2300.37 283.6 2312.37 288.6 2330.57 290.4C2349.77 292.2 2354.77 294 2364.37 302.4C2372.97 309.8 2377.57 317.8 2377.57 325.2C2377.57 334 2386.77 341 2406.57 347.4C2425.97 353.4 2435.57 360.6 2435.57 368.6C2435.57 374.6 2442.17 385.6 2450.57 393.6C2460.97 403.2 2461.17 407.8 2452.57 429.8C2441.37 458 2423.17 493.2 2411.77 508.4C2394.57 531.6 2315.17 601.2 2293.37 612.4C2289.17 614.4 2284.37 616.2 2282.57 616.2C2280.77 616.2 2275.17 620.2 2269.77 625.2C2259.57 634.8 2247.37 640.2 2236.17 640.2C2227.37 640.2 2201.97 648.8 2186.97 656.6C2170.57 665.4 2164.37 673.2 2162.57 687.4C2161.57 696.2 2159.97 700.2 2155.57 704.6C2149.17 711 2144.57 711.6 2133.97 707C2123.17 702.4 2108.57 703.2 2086.17 709.8C2065.97 716 2030.97 723.6 1997.57 729.2C1964.57 734.8 1958.17 737.4 1943.57 752.4C1928.37 768 1931.17 767.2 1874.57 769.2C1833.97 770.4 1819.57 773.2 1794.97 784.4C1784.97 789 1769.37 794 1760.57 795.8C1737.77 800 1730.17 803.6 1722.37 814C1718.57 818.8 1713.77 824 1711.57 825.6C1705.17 830.2 1689.57 832 1640.17 834.2C1555.17 837.8 1499.77 842.6 1455.57 850.4C1426.77 855.4 1413.77 859 1398.57 866.4C1384.37 873.2 1383.57 873.4 1377.57 868.2ZM1625.57 722.2C1627.77 720 1629.57 717.4 1629.57 716.4C1629.57 712.8 1644.97 707.6 1666.37 703.8C1697.17 698.6 1708.57 694.6 1718.37 685.8C1729.57 675.6 1735.77 675.6 1743.17 686.2C1746.17 690.6 1749.97 694.6 1751.97 695.2C1753.77 695.8 1764.77 692.4 1776.17 687.4C1787.77 682.4 1806.57 675.6 1817.97 672C1845.17 663.6 1861.97 656 1875.17 645.6L1886.17 637.2L1905.37 637.4C1915.97 637.4 1935.77 637.8 1949.57 638.4C1973.17 639.2 1974.97 639 1980.57 634.6C1985.57 631 1991.57 629.6 2012.57 627.2C2035.77 624.6 2039.17 623.8 2046.57 618.4C2076.17 596.4 2139.97 562 2158.17 558.2C2163.97 557.2 2177.97 554.2 2189.57 552C2228.97 544.4 2242.17 534.8 2258.37 502.8C2263.17 493 2268.77 483.6 2270.77 482C2273.17 480 2279.17 479.2 2290.57 479.2C2306.37 479.2 2307.57 478.8 2317.77 471.6C2323.77 467.6 2334.17 459 2341.17 452.6L2353.77 441.2L2338.77 422C2317.37 394.2 2299.97 382.8 2266.57 374.2C2246.57 369 2238.77 364 2230.37 351C2221.57 337.4 2215.77 333 2203.97 331.4C2181.37 328.4 2144.77 312.2 2110.37 290C2088.17 275.6 2081.17 274 2065.97 280C2051.77 285.6 2037.17 285.4 2024.57 279.4C2012.57 273.8 2007.17 268.2 2001.97 256.2C1994.77 239.4 1986.57 234.8 1958.57 232C1943.97 230.6 1937.97 228.8 1926.57 223C1888.57 203.2 1885.17 201.8 1862.37 197.2C1848.77 194.4 1835.57 190.2 1830.77 187.4C1826.37 184.8 1813.37 173 1802.37 161.4C1779.77 137.8 1775.97 136.2 1763.77 145.2C1754.97 151.6 1737.77 155 1720.57 153.6C1701.17 152 1691.57 148.2 1685.97 140C1683.37 136.2 1679.57 132.6 1677.37 131.8C1672.37 129.8 1662.97 133.8 1652.57 142.2C1641.97 150.6 1634.97 149.8 1605.97 136.6C1593.77 131 1577.37 124.4 1569.57 122C1556.17 118 1555.17 118 1551.57 121.2C1541.97 130 1544.97 146.2 1560.77 169.4C1567.57 179.6 1572.97 190 1574.77 197.2C1579.97 216.6 1599.57 252.8 1619.77 280.4C1632.97 298.4 1637.57 308.8 1637.57 322.4C1637.57 331.2 1636.57 335 1632.57 340.4C1619.97 357.4 1618.57 363 1618.57 393.2C1618.57 424.8 1620.37 432.8 1630.77 444.2L1637.37 451.6L1630.57 461.6C1621.57 474.2 1618.77 488 1614.57 536.2C1609.57 594.8 1605.17 615.2 1589.77 652C1577.17 682 1571.97 712.6 1578.57 718.2C1584.17 722.8 1596.57 726 1609.17 726.2C1618.97 726.2 1622.37 725.4 1625.57 722.2ZM879.766 694C882.566 688.6 877.366 682.6 862.166 674.2C849.566 667 845.566 660.2 845.566 645.8C845.566 621.4 838.566 583.2 829.366 558.2C827.166 551.8 821.766 542.4 817.366 537.2C810.766 529.2 809.566 526.4 809.566 518.2C809.566 511.8 810.766 507.2 813.566 503.6C815.766 500.8 817.566 497 817.566 494.8C817.566 491.4 815.966 488.6 802.766 467.2C791.366 448.8 794.166 429.6 809.766 419.2C820.166 412.4 821.766 407.6 818.566 394.6C814.566 379.8 810.966 324.2 811.966 296.8C812.966 271.4 813.966 268.4 826.366 252.8C835.166 242 837.566 230.4 837.566 199.2V174.2L797.166 173.8C774.766 173.4 749.966 173.4 741.766 173.6C713.766 174.6 680.366 185.4 664.366 198.8C650.366 210.4 645.366 210.6 605.566 201.4L576.566 194.6L556.166 216.2C541.966 231.2 533.166 238.8 527.366 241C521.366 243.4 508.766 245 485.766 246C446.366 248 438.366 250.4 394.566 273.4C357.166 292.8 338.166 300 318.766 302.2C303.166 304 298.566 306.4 300.566 311.8C303.166 319 303.766 330 301.566 334C298.166 340.6 291.166 342.4 257.966 345C222.766 348 222.366 348.2 211.566 368.8C203.766 384 193.166 395.4 185.166 397C171.166 399.8 133.966 432.6 127.766 447.8C120.166 466.2 143.766 487.4 207.566 519C225.766 528 244.566 536.6 249.566 538C268.766 543.6 267.966 543 266.366 555.4C265.366 564 265.766 567 267.766 568.4C272.966 571.6 281.166 570.2 292.566 564.2C298.766 561 305.366 558.2 306.966 558.2C308.766 558.2 318.166 562 328.366 566.4C354.766 578.4 416.366 598.6 427.366 599C434.966 599.2 437.966 598.2 443.366 593.8C446.966 590.6 451.766 588.2 454.366 588.2C456.966 588.2 464.366 593.2 472.366 600.2C479.766 606.8 489.166 613.6 493.166 615.4C497.366 617.2 511.766 619.2 526.566 620.2C556.166 622.4 563.366 624 580.366 632.8C592.366 639.2 592.566 639.2 617.566 638.4C631.366 638 650.166 637.6 659.366 637.4L676.166 637.2L678.766 648C679.966 653.8 682.166 659.4 683.566 660.2C684.966 661 692.366 662.4 700.366 663.2C708.166 663.8 719.966 666.6 726.766 669.4C742.166 675.4 749.766 675.4 763.166 669.2C775.366 663.6 781.966 663 785.566 667C788.966 671.4 802.766 676 818.566 678.2C828.566 679.4 837.566 682.6 850.366 689.2C870.366 699.2 876.366 700.2 879.766 694Z" fill="white"/>
</svg>
