<?xml version="1.0" encoding="utf-8"?>
<!DOCTYPE svg PUBLIC "-//W3C//DTD SVG 1.0//EN" "http://www.w3.org/TR/2001/REC-SVG-20010904/DTD/svg10.dtd">
<svg version="1.0" xmlns="http://www.w3.org/2000/svg" width="8000px" height="4500px" viewBox="0 0 8000 4500" preserveAspectRatio="xMidYMid meet">
 <g fill="#3e54a4">
  <path d="M5812.60 1712.80 c-19.60 -9.80 -38 -12.60 -87.80 -14.20 -45.20 -1.20 -66.40 0.60 -84.20 7.40 -15 5.60 -47.80 10.20 -83.80 11.40 -22.40 0.80 -33.40 0.40 -36.40 -1.20 -7.60 -4 -23.20 -6 -74.80 -9.20 -111.20 -7 -139 -12.60 -162.20 -32.60 -17.80 -15.40 -21.20 -16.20 -39.40 -9.20 -7 2.80 -15 3.40 -37 3.40 -31 0 -52.20 -3.60 -72 -12 -22.40 -9.60 -44 -16.60 -51.20 -16.60 -7.80 0 -28.60 -6.40 -39.80 -12 -12.80 -6.40 -28.60 -10.20 -51.40 -12 -26.60 -2 -59.80 -10.40 -87.80 -22.20 -39 -16.40 -52.60 -19.60 -82.80 -19.80 -22.20 -0.20 -43.60 -4.60 -62 -13 -15.60 -7 -17.20 -7.40 -30.80 -6.20 -13.40 1.20 -14.80 1 -24.20 -4.80 -5.40 -3.40 -16 -10.80 -23.40 -16.60 -7.40 -5.80 -20.40 -14.60 -29 -19.80 -24 -14.20 -106.20 -53.20 -119.40 -56.60 -6.60 -1.60 -15.20 -5.20 -19.40 -8 -20.20 -14.20 -85.20 -76.20 -110.20 -105.60 -9 -10.60 -13.60 -17.80 -14.60 -23 -0.60 -4 -4.80 -15.20 -9.20 -24.60 -4.20 -9.40 -7.80 -20 -7.80 -23.60 0 -3.40 4.40 -16 9.80 -27.80 10.40 -23 16.20 -40 16.20 -48.20 0 -8.20 10.60 -24.40 24 -36.80 26.20 -24.40 55.20 -40 93.60 -50.40 24.80 -6.60 33.40 -9.80 44.40 -16 2.80 -1.60 8.20 -3 12.20 -3 16.20 0 28.20 -4 43.40 -14.20 18.60 -12.40 73.60 -39.80 102.40 -51.20 11.60 -4.40 27 -9 34.20 -10.20 16.80 -2.60 25.60 -7.20 41.20 -21.40 16.60 -14.80 32.60 -24.40 46.40 -27 6.20 -1.40 16.80 -5.40 23.60 -9.20 8.80 -5 13.80 -6.40 18 -5.60 6.20 1.20 23.40 -4.40 49.60 -16 20 -8.80 46.60 -16.40 69.80 -20.20 30.40 -5 36.40 -7.80 52.20 -24.40 16.60 -17.20 18.60 -17.60 43 -8.80 8.80 3.20 20.80 7 26.60 8.20 11.80 2.80 16 1.40 32 -10.20 4.40 -3.20 11.20 -6.80 15.20 -8 4 -1.20 29.80 -2.80 57.20 -3.60 56.80 -1.80 61.60 -2.80 69.80 -15.80 8.20 -13.20 10.60 -13.40 90.20 -12.80 77.20 0.40 112.60 2.60 132.20 7.80 l12.80 3.40 10.60 -5.40 c12.40 -6.20 18.40 -6.60 39.40 -2.60 27 5.20 72.20 7.60 122.40 6.80 46.60 -1 49.20 -1.20 63.80 -6.40 l15.40 -5.40 12 5 c16.60 7 32.60 9.20 67.40 9.20 33.40 0 43.20 -1.60 50 -8 10.40 -9.80 30.60 -6.80 69 10.40 36 16 60.40 22.20 142 36.40 34.40 6 52.80 11.40 62.20 18.20 19 13.80 31.80 17.20 103.60 26 79.20 9.80 83.40 11.20 113.40 34.20 20.40 15.60 32.40 21.80 47 24.40 15.20 2.80 25.80 7.40 69.20 29.20 43.40 21.80 57.60 26.60 86.60 29.20 27.20 2.60 29 3 31.60 8.80 4.40 9.60 42.80 35 57.80 38.20 4.80 1 9.40 0 17.80 -3.80 18.60 -8.60 26.80 -6.20 26.80 7.80 0 7.40 3 12.60 14.60 24.40 5.40 5.60 12.40 14.60 15.20 20 2.80 5.20 7.40 10.60 10.20 11.80 16.40 7.40 17 8 18.20 14.80 2.40 15.20 20 43.80 53.40 88 35 45.80 35.20 56.20 1.60 71.80 -12.20 5.60 -16.80 9 -18.80 13.20 -1.60 3.20 -10.80 15.80 -20.60 28.20 -18.40 23.20 -29.80 42 -29.80 49.60 0 11.80 -19.20 20 -53 22.80 -23.20 2 -30.40 4.80 -46 18.60 -14 12.20 -26.40 18.60 -44.20 23 -14.20 3.40 -31.60 11 -33.80 14.80 -2 3.20 -16.40 10 -21.40 10 -11.20 0 -20.80 4.60 -30 14.20 -10.60 11.20 -19.80 15.80 -32 15.80 -15.20 0 -35.40 5.60 -57.40 15.80 -11.80 5.40 -29 12.20 -38 15 -20.40 6.40 -29.20 10.80 -49.20 25 -18.60 13 -31.60 18 -47 18.20 -15.40 0 -33.80 4.80 -49.60 12.80 -18.60 9.40 -23.40 10 -38.40 5.40 -26 -7.60 -31.40 -7.20 -79 7.80 -17.40 5.40 -38.40 11.40 -46.40 13 -13.20 2.80 -15.40 2.80 -23 -0.20 -14.20 -5.40 -18 -4.80 -21.80 3.40 -6.20 12.60 -7 13 -41.60 11.80 -50 -1.60 -74.60 -1 -83.20 1.80 -4.40 1.40 -23 10.20 -41.40 19.40 -37.40 18.80 -59 26.80 -72 26.80 -6 0 -13.20 -2.20 -23 -7.20z m-537.20 -146 c15.20 -11.20 13.20 -24.80 -6.40 -42 -17.40 -15.40 -18.40 -18.20 -12 -37.60 6.40 -19.80 5.40 -23.40 -12 -42.20 -18.60 -20.20 -20 -23.60 -20 -50.40 0 -20 0.40 -22.80 4.60 -28.40 5.40 -7.40 5.40 -9 0.40 -17.40 -7.20 -11.60 -10 -31.40 -12.20 -88.60 -1.60 -39 -1.60 -59.40 0 -70.80 3.60 -26.80 2.80 -43.60 -2.80 -58.40 -5 -13.40 -4.80 -16.40 1.40 -25 2 -2.80 4.80 -11.20 6.40 -18.80 3.40 -15.40 6.20 -19.20 24.80 -32.40 15 -10.80 18.40 -17 20.60 -37 1 -9.20 4.20 -20.80 7.60 -29 3.60 -8.40 5.20 -14.60 4 -15.60 -1 -1.20 -18.40 -0.20 -46 2.60 -49.20 5.20 -65.60 5 -92 -1.80 -22 -5.60 -25.80 -5 -30.40 5 -7.60 16.20 -14.80 20.20 -24.60 13.80 -4.60 -3.20 -5.80 -3 -18.40 1 -15.20 5 -71.60 34.60 -88.60 46.60 -9 6.20 -14.20 8.20 -24.60 9.80 -7.40 1 -18.60 3.60 -24.80 6 -27.40 9.80 -29.40 10.20 -50.40 10 -11.60 0 -22.40 0.40 -24.40 1 -1.80 0.60 -4.60 4.20 -6.20 8.40 -5.60 14 -11.80 16.60 -49.40 20.40 -53.80 5.60 -97 23 -128 51.60 -15.60 14.20 -27.20 20.20 -39.60 20.40 -19.60 0 -39.20 9.80 -92.40 45.60 -17 11.60 -36 23.20 -42 26.20 -8 3.80 -12 7.20 -14.40 12.20 -7.20 14 -2.80 35 9.60 46.20 13.40 12.40 35 23.20 53.20 26.80 15.40 3 42.40 34 49 56 3 10.20 14.40 14.80 42 17 13 1.20 30.80 3.40 39.60 5.20 31 6 65 18 65 22.60 0 1.80 11 7.40 30 15.40 5 2 14.80 8.20 22 13.60 20.20 15.40 23 16 48.40 13 24.80 -2.80 25.60 -2.60 30.60 12.20 4.80 14.40 6.40 15.20 21.40 8.60 10.40 -4.60 15.20 -5.40 28.60 -5.40 26.60 0.40 54.20 11.60 62.80 25.40 6.40 10.40 11.20 11.60 48.20 11 36.20 -0.60 32.40 -1.60 62 14.80 24.40 13.20 40 17.60 73 19.80 25.40 1.60 44.80 5 51 8.80 15.40 9.40 45 11.60 55.40 3.80z m851.60 -41.80 c2.80 -2.60 5 -6.20 5 -7.80 0 -4.80 10 -15.20 14.60 -15.20 6.20 -0.20 20 -6.80 29 -14 10.80 -8.60 17.60 -9 46.20 -3.20 39 8.20 42 7.60 76.40 -14.20 10.40 -6.60 21 -12.80 23.60 -13.60 7.80 -2.40 21 -1.40 43.40 3.20 19.80 4 21.60 4 29.40 1 4.60 -1.80 14 -7.80 21 -13.40 20.80 -16.80 25.40 -18 69.20 -19.80 44.20 -1.80 49.20 -3.20 69.60 -18.20 16.80 -12.60 25.60 -15.80 38 -14.40 13 1.60 18.20 -0.20 29.60 -10.40 12 -10.60 14.40 -12 29.80 -16.80 12.40 -3.80 36.20 -16.80 57.20 -31 17.40 -11.80 48.80 -27.20 55.20 -27.20 9.60 0 11.80 -1.80 11.80 -9.80 0 -4.20 -1.40 -12.20 -3.20 -18 -3.80 -12.80 -11.20 -18.20 -25 -18.20 -11.40 0 -36.80 -6.40 -47.80 -12 -13.80 -7 -25.20 -19.20 -33.20 -35 -7.80 -16 -22 -31.20 -33.80 -36.20 -3.80 -1.60 -12.60 -2.80 -19.40 -2.80 -17.40 0 -24.60 -4 -34.80 -20 -17.40 -26.60 -22 -32.40 -32.60 -40 -14.80 -10.80 -27.80 -15.20 -61.60 -21.20 -30.40 -5.20 -37.20 -7.60 -45.60 -16 l-5.20 -5.20 -27.60 1.40 c-32.40 1.60 -34.60 1 -55 -15.80 -24.80 -20.40 -34.20 -23.40 -93.20 -28.20 -70 -5.80 -75.80 -7.20 -110.60 -26.80 -15.40 -8.80 -28.80 -9.40 -36.80 -1.80 -8.20 7.60 -13.20 9.60 -27.40 11 -16 1.40 -29.40 -1.80 -40 -9.60 -8.80 -6.40 -14.20 -7.40 -16 -2.80 -1.20 3.60 0.80 9.40 8.80 25.60 6.40 12.80 9 23.80 11.60 49.60 1.20 10.80 3.40 20.20 6 25 12.40 23.20 11.40 11.20 11.40 132.80 -0.20 129.60 -0.80 135 -16 155.80 -5.60 7.40 -6.60 15.80 -2.20 17.40 1.60 0.60 3.80 3.60 5.20 6.80 3.80 9.20 -0.60 24.40 -16.80 57.20 -8 16.40 -15.20 32.20 -15.80 35.20 -2.80 10.60 -1.20 11.40 24.20 11.20 19.80 0 25.80 0.60 39.40 5 9 3 21 5.20 27.60 5.20 9.80 0.20 12.40 -0.60 16.40 -4.80z"/>
  <path d="M1978 1706 c-5.80 -5 -2.40 -4.80 -81 -5 l-66 0 -16.80 -5.40 c-49.60 -16.20 -154 -26.20 -179 -17 -11.20 4 -17.20 3.40 -39.40 -4.60 -20.60 -7.60 -54.80 -15 -91.60 -20 -36.60 -4.80 -56.80 -5 -76.40 -1 -16.80 3.60 -20.40 2.80 -29.80 -6 -9.80 -9.20 -14.40 -11.20 -21.40 -9.20 -9 2.60 -18.60 -1.80 -34.60 -15.60 -16.20 -13.80 -19.80 -14.60 -36.40 -8 -15.40 6.20 -42.80 9.80 -73.60 9.80 -24.60 -0.20 -27.80 -0.60 -37 -5 -6.80 -3.40 -13.40 -5 -20.60 -5 -10.80 0 -24.40 -4.20 -24.40 -7.60 0 -6.40 -61.60 -30.60 -88.40 -34.60 -15.80 -2.40 -23 -6.20 -39.40 -20.60 -11.60 -10.40 -29.80 -19.40 -47.80 -24.20 -24.80 -6.40 -110 -38.80 -122.80 -46.60 -4 -2.40 -14.80 -11.40 -24 -19.60 -23.40 -21.40 -29.80 -24.60 -51 -26.80 -35.80 -3.80 -60 -17.80 -81.60 -47 -13.20 -17.80 -21.20 -23.60 -39.80 -29.20 -19.20 -5.80 -23.20 -10.20 -23.20 -26.40 0 -15.80 -2 -17.80 -18.40 -19 -7.60 -0.60 -12.40 -1.80 -13 -3.60 -2.60 -6.80 26 -55.60 34.60 -58.80 2.80 -1.20 5.20 -4.20 5.80 -7.40 2.20 -9.60 5.60 -15 18 -28.20 6.80 -7.40 15 -19 19 -27 8.80 -17.80 25.20 -32.60 69.60 -62.20 17.40 -11.60 38.60 -27 47.40 -34.20 8.80 -7.40 20 -15.40 25 -18 11.20 -5.60 35.80 -13.40 57 -18 20.80 -4.60 36.60 -12.20 54.40 -26.60 25.40 -20.40 62.60 -38 89.60 -42.40 23.60 -4 30.80 -6.40 43.60 -14.60 13.40 -8.80 31.80 -15.40 42.40 -15.40 11.40 0 26.60 -4 34 -9.20 10 -6.80 24 -10.20 58 -14.60 34.40 -4.40 56.60 -9.60 81.20 -19.20 21.60 -8.40 37.80 -11.20 57.60 -9.60 19.20 1.40 31.60 -1.20 54 -11.60 23.20 -10.80 35.60 -13.60 68.40 -15.60 30.60 -2 27 -0.80 62.80 -20.20 11.80 -6.20 12.40 -6.40 32 -5.40 15.80 0.80 24.80 2.40 43 8.40 42.60 13.60 48.60 14 70 5.80 7.80 -3 20 -3.60 87 -4.80 75.80 -1.40 78.40 -1.60 90 -6.20 12 -4.80 12 -4.80 97 -4.80 85.80 0 111.40 1.40 143 8.20 23 5 39.80 4.40 55 -2.20 9 -4 16.60 -5.80 24.40 -5.80 10.40 -0.20 12 0.40 18.60 6.80 4 3.80 10 12 13 18.20 9 17.60 9.20 17.60 31.80 10 12.80 -4.40 25.60 -7 36.80 -8 49 -3.80 104.40 8.20 135 29.40 24 16.40 60.20 30.40 89.20 34.40 16.80 2.40 31.40 9 57.60 25.60 46.20 29.40 72.60 40.20 123 50.40 51 10.40 86.40 21.40 104.20 32.80 10.40 6.60 13.20 10.60 12.80 18.20 -0.60 8 0.80 8.80 24.60 11.20 20.40 2 38.40 9.60 65.60 27.40 24.20 15.80 36.20 20.80 54.40 22.60 19.20 1.80 24.20 3.60 33.80 12 8.60 7.40 13.20 15.40 13.20 22.80 0 8.80 9.20 15.80 29 22.20 19.40 6 29 13.20 29 21.20 0 6 6.60 17 15 25 10.40 9.60 10.60 14.20 2 36.20 -11.20 28.20 -29.40 63.40 -40.80 78.60 -17.20 23.20 -96.60 92.80 -118.40 104 -4.20 2 -9 3.80 -10.80 3.80 -1.80 0 -7.40 4 -12.80 9 -10.20 9.60 -22.40 15 -33.60 15 -8.80 0 -34.20 8.60 -49.20 16.40 -16.40 8.80 -22.60 16.60 -24.40 30.80 -1 8.80 -2.60 12.80 -7 17.20 -6.40 6.40 -11 7 -21.60 2.40 -10.80 -4.60 -25.40 -3.80 -47.80 2.80 -20.20 6.20 -55.20 13.80 -88.60 19.40 -33 5.60 -39.40 8.20 -54 23.20 -15.20 15.60 -12.40 14.80 -69 16.80 -40.60 1.20 -55 4 -79.60 15.20 -10 4.60 -25.60 9.60 -34.40 11.40 -22.80 4.20 -30.40 7.80 -38.20 18.20 -3.80 4.80 -8.60 10 -10.80 11.60 -6.40 4.60 -22 6.40 -71.40 8.60 -85 3.60 -140.40 8.40 -184.60 16.20 -28.80 5 -41.80 8.60 -57 16 -14.20 6.80 -15 7 -21 1.80z m248 -146 c2.20 -2.20 4 -4.80 4 -5.80 0 -3.60 15.40 -8.80 36.80 -12.60 30.80 -5.20 42.20 -9.20 52 -18 11.20 -10.20 17.40 -10.20 24.80 0.40 3 4.40 6.80 8.40 8.80 9 1.80 0.60 12.80 -2.80 24.20 -7.80 11.60 -5 30.40 -11.80 41.80 -15.40 27.20 -8.40 44 -16 57.20 -26.40 l11 -8.40 19.20 0.20 c10.60 0 30.40 0.40 44.20 1 23.60 0.80 25.40 0.60 31 -3.80 5 -3.60 11 -5 32 -7.40 23.20 -2.60 26.60 -3.40 34 -8.80 29.60 -22 93.40 -56.40 111.60 -60.20 5.80 -1 19.80 -4 31.40 -6.20 39.40 -7.60 52.60 -17.20 68.80 -49.20 4.80 -9.80 10.40 -19.20 12.40 -20.80 2.40 -2 8.40 -2.80 19.80 -2.80 15.80 0 17 -0.40 27.20 -7.60 6 -4 16.40 -12.60 23.40 -19 l12.60 -11.40 -15 -19.20 c-21.40 -27.80 -38.80 -39.20 -72.20 -47.80 -20 -5.20 -27.80 -10.20 -36.20 -23.20 -8.80 -13.60 -14.60 -18 -26.40 -19.60 -22.60 -3 -59.20 -19.20 -93.60 -41.40 -22.20 -14.40 -29.20 -16 -44.40 -10 -14.20 5.60 -28.80 5.40 -41.40 -0.60 -12 -5.60 -17.40 -11.20 -22.60 -23.20 -7.20 -16.80 -15.40 -21.40 -43.40 -24.20 -14.60 -1.40 -20.60 -3.20 -32 -9 -38 -19.80 -41.40 -21.20 -64.20 -25.80 -13.60 -2.80 -26.80 -7 -31.60 -9.80 -4.40 -2.60 -17.40 -14.40 -28.40 -26 -22.60 -23.60 -26.40 -25.20 -38.60 -16.20 -8.80 6.40 -26 9.80 -43.20 8.40 -19.40 -1.60 -29 -5.40 -34.60 -13.60 -2.60 -3.80 -6.40 -7.40 -8.60 -8.20 -5 -2 -14.40 2 -24.80 10.40 -10.60 8.40 -17.60 7.60 -46.60 -5.60 -12.20 -5.60 -28.60 -12.20 -36.40 -14.60 -13.40 -4 -14.40 -4 -18 -0.80 -9.60 8.80 -6.60 25 9.20 48.20 6.80 10.20 12.20 20.60 14 27.80 5.20 19.40 24.80 55.60 45 83.20 13.20 18 17.80 28.40 17.80 42 0 8.80 -1 12.60 -5 18 -12.60 17 -14 22.60 -14 52.80 0 31.60 1.80 39.60 12.20 51 l6.60 7.40 -6.80 10 c-9 12.60 -11.80 26.40 -16 74.60 -5 58.60 -9.40 79 -24.80 115.80 -12.60 30 -17.80 60.60 -11.20 66.20 5.60 4.60 18 7.80 30.60 8 9.80 0 13.20 -0.80 16.40 -4z m-745.80 -28.20 c2.80 -5.40 -2.40 -11.40 -17.60 -19.80 -12.60 -7.20 -16.60 -14 -16.60 -28.40 0 -24.40 -7 -62.60 -16.20 -87.60 -2.20 -6.40 -7.60 -15.80 -12 -21 -6.60 -8 -7.80 -10.80 -7.80 -19 0 -6.40 1.20 -11 4 -14.60 2.20 -2.80 4 -6.60 4 -8.80 0 -3.40 -1.60 -6.20 -14.80 -27.60 -11.40 -18.40 -8.60 -37.60 7 -48 10.40 -6.80 12 -11.60 8.80 -24.60 -4 -14.80 -7.60 -70.40 -6.60 -97.80 1 -25.40 2 -28.40 14.40 -44 8.80 -10.80 11.20 -22.40 11.20 -53.60 l0 -25 -40.40 -0.40 c-22.40 -0.40 -47.20 -0.40 -55.40 -0.20 -28 1 -61.40 11.80 -77.40 25.20 -14 11.60 -19 11.80 -58.80 2.60 l-29 -6.80 -20.40 21.60 c-14.20 15 -23 22.60 -28.80 24.80 -6 2.40 -18.60 4 -41.60 5 -39.40 2 -47.40 4.40 -91.20 27.40 -37.40 19.40 -56.40 26.60 -75.80 28.80 -15.60 1.80 -20.20 4.20 -18.20 9.60 2.60 7.20 3.20 18.20 1 22.20 -3.40 6.60 -10.40 8.40 -43.60 11 -35.20 3 -35.60 3.20 -46.40 23.80 -7.80 15.20 -18.40 26.60 -26.40 28.20 -14 2.80 -51.20 35.60 -57.40 50.80 -7.60 18.40 16 39.60 79.80 71.20 18.20 9 37 17.60 42 19 19.20 5.60 18.40 5 16.80 17.40 -1 8.60 -0.60 11.60 1.40 13 5.20 3.20 13.40 1.80 24.80 -4.20 6.20 -3.20 12.80 -6 14.40 -6 1.80 0 11.20 3.80 21.40 8.20 26.40 12 88 32.20 99 32.60 7.60 0.20 10.60 -0.80 16 -5.20 3.60 -3.20 8.40 -5.60 11 -5.60 2.60 0 10 5 18 12 7.40 6.60 16.80 13.40 20.80 15.20 4.20 1.80 18.60 3.80 33.40 4.80 29.60 2.20 36.80 3.80 53.80 12.60 12 6.40 12.20 6.40 37.20 5.60 13.80 -0.40 32.60 -0.80 41.80 -1 l16.80 -0.20 2.60 10.80 c1.20 5.80 3.40 11.40 4.80 12.20 1.40 0.80 8.80 2.20 16.80 3 7.80 0.60 19.60 3.40 26.40 6.20 15.40 6 23 6 36.40 -0.20 12.20 -5.60 18.80 -6.20 22.40 -2.20 3.40 4.40 17.20 9 33 11.20 10 1.20 19 4.40 31.80 11 20 10 26 11 29.40 4.80z"/>
 </g>
</svg>