<svg width="26" height="13" viewBox="0 0 26 13" fill="none" xmlns="http://www.w3.org/2000/svg">
<path d="M14.5673 12.9451C14.5059 12.8696 14.5419 12.8726 13.7107 12.8696H13.0128L12.8351 12.7881C12.3106 12.5434 11.2066 12.3923 10.9423 12.5313C10.8238 12.5917 10.7604 12.5826 10.5256 12.4618C10.3078 12.347 9.94614 12.2352 9.55699 12.1597C9.16996 12.0872 8.95636 12.0842 8.74909 12.1446C8.57144 12.199 8.53337 12.1869 8.43397 12.0539C8.33034 11.915 8.28169 11.8848 8.20767 11.915C8.1125 11.9542 8.01098 11.8878 7.84179 11.6793C7.67048 11.4709 7.63241 11.4588 7.45687 11.5585C7.29402 11.6521 7.00428 11.7065 6.67858 11.7065C6.41844 11.7035 6.38461 11.6975 6.28732 11.631C6.21541 11.5796 6.14562 11.5555 6.06948 11.5555C5.95528 11.5555 5.81146 11.492 5.81146 11.4407C5.81146 11.344 5.16006 10.9785 4.87666 10.918C4.70958 10.8818 4.63345 10.8244 4.46002 10.6069C4.33736 10.4498 4.1449 10.3138 3.95456 10.2413C3.69231 10.1446 2.79135 9.65524 2.65599 9.53742C2.61369 9.50117 2.49949 9.36522 2.4022 9.24136C2.15475 8.91811 2.08708 8.86977 1.86289 8.83654C1.48432 8.77914 1.22842 8.56766 1 8.12659C0.86042 7.85772 0.775823 7.77011 0.579135 7.68552C0.376102 7.59791 0.333803 7.53145 0.333803 7.28674C0.333803 7.04808 0.312654 7.01787 0.13923 6.99975C0.0588627 6.99068 0.00810447 6.97256 0.0017597 6.94537C-0.0257343 6.84265 0.2767 6.10552 0.367642 6.05718C0.397251 6.03906 0.42263 5.99374 0.428975 5.9454C0.452239 5.80039 0.488193 5.71883 0.619318 5.51944C0.691226 5.40766 0.777938 5.23244 0.820236 5.1116C0.913293 4.84272 1.08672 4.61917 1.55623 4.17205C1.74023 3.99683 1.96441 3.76421 2.05747 3.65546C2.15052 3.54368 2.26896 3.42284 2.32183 3.38356C2.44027 3.29897 2.70041 3.18115 2.92459 3.11167C3.14454 3.04219 3.31162 2.92739 3.49985 2.70987C3.76844 2.40173 4.16182 2.13587 4.44733 2.06941C4.69689 2.00899 4.77303 1.97274 4.90839 1.84888C5.05009 1.71595 5.24466 1.61626 5.35675 1.61626C5.4773 1.61626 5.63804 1.55583 5.71629 1.47729C5.82203 1.37457 5.97008 1.32321 6.32962 1.25675C6.69338 1.19029 6.92814 1.11174 7.18828 0.966732C7.41669 0.839849 7.588 0.797554 7.79738 0.821723C8.00041 0.84287 8.13153 0.803596 8.36841 0.646502C8.61374 0.483366 8.74486 0.441072 9.09171 0.410861C9.41529 0.380651 9.37722 0.398777 9.7558 0.105736C9.88058 0.0120842 9.88692 0.00906275 10.0942 0.0241679C10.2613 0.0362521 10.3564 0.0604208 10.5489 0.151052C10.9994 0.356483 11.0628 0.362524 11.2891 0.238662C11.3716 0.193346 11.5006 0.184283 12.2091 0.166157C13.0107 0.14501 13.0382 0.141989 13.1608 0.0725047C13.2877 -1.86265e-07 13.2877 0 14.1866 0C15.0939 0 15.3646 0.0211475 15.6987 0.123863C15.942 0.199389 16.1196 0.190325 16.2803 0.0906311C16.3755 0.0302104 16.4559 0.00302122 16.5384 0.00302122C16.6483 1.84402e-07 16.6653 0.00906312 16.7351 0.105736C16.7773 0.163136 16.8408 0.286999 16.8725 0.380651C16.9677 0.646502 16.9698 0.646502 17.2088 0.531703C17.3442 0.46524 17.4795 0.425967 17.5979 0.410861C18.1161 0.353462 18.7019 0.534723 19.0255 0.854953C19.2793 1.10268 19.6621 1.31415 19.9688 1.37457C20.1464 1.41082 20.3008 1.51052 20.5779 1.76126C21.0664 2.20536 21.3456 2.36849 21.8785 2.52257C22.4179 2.67966 22.7922 2.84582 22.9804 3.01802C23.0904 3.11771 23.12 3.17813 23.1158 3.29293C23.1094 3.41377 23.1242 3.42586 23.3759 3.46211C23.5916 3.49232 23.782 3.60712 24.0696 3.87599C24.3255 4.11465 24.4524 4.19018 24.6449 4.21737C24.8479 4.24456 24.9008 4.27175 25.0023 4.39863C25.0932 4.51041 25.1419 4.63125 25.1419 4.74303C25.1419 4.87596 25.2392 4.98169 25.4485 5.07836C25.6537 5.169 25.7552 5.27775 25.7552 5.3986C25.7552 5.48923 25.825 5.65538 25.9138 5.77623C26.0238 5.92124 26.0259 5.99072 25.935 6.32303C25.8165 6.749 25.6241 7.2807 25.5035 7.5103C25.3216 7.86074 24.482 8.91206 24.2515 9.08124C24.2071 9.11145 24.1563 9.13864 24.1373 9.13864C24.1183 9.13864 24.059 9.19906 24.0019 9.27459C23.8941 9.4196 23.7651 9.50117 23.6466 9.50117C23.5536 9.50117 23.285 9.63107 23.1264 9.74889C22.9529 9.88182 22.8874 9.99964 22.8683 10.2141C22.8578 10.3471 22.8408 10.4075 22.7943 10.4739C22.7266 10.5706 22.678 10.5797 22.5659 10.5102C22.4517 10.4407 22.2973 10.4528 22.0604 10.5525C21.8468 10.6461 21.4767 10.7609 21.1235 10.8455C20.7746 10.9301 20.7069 10.9694 20.5525 11.196C20.3918 11.4316 20.4214 11.4195 19.8228 11.4497C19.3935 11.4679 19.2412 11.5102 18.9811 11.6793C18.8754 11.7488 18.7104 11.8243 18.6173 11.8515C18.3762 11.915 18.2959 11.9694 18.2134 12.1264C18.1732 12.199 18.1224 12.2775 18.0992 12.3017C18.0315 12.3712 17.8665 12.3983 17.3442 12.4316C16.4453 12.486 15.8595 12.5585 15.3921 12.6763C15.0875 12.7518 14.9501 12.8062 14.7893 12.918C14.6392 13.0207 14.6307 13.0237 14.5673 12.9451ZM17.1898 10.7398C17.213 10.7066 17.2321 10.6673 17.2321 10.6522C17.2321 10.5978 17.3949 10.5193 17.6212 10.4619C17.9469 10.3833 18.0675 10.3229 18.1711 10.19C18.2895 10.0359 18.3551 10.0359 18.4333 10.196C18.4651 10.2625 18.5052 10.3229 18.5264 10.332C18.5454 10.341 18.6617 10.2897 18.7823 10.2141C18.905 10.1386 19.1038 10.0359 19.2243 9.98151C19.5119 9.85463 19.6896 9.73983 19.8292 9.58273L19.9455 9.45585L20.1485 9.45887C20.2606 9.45887 20.47 9.46491 20.6159 9.47398C20.8655 9.48606 20.8845 9.48304 20.9438 9.41658C20.9966 9.3622 21.0601 9.34105 21.2821 9.3048C21.5275 9.26552 21.5634 9.25344 21.6417 9.17187C21.9547 8.83956 22.6294 8.31994 22.8218 8.26254C22.8831 8.24743 23.0312 8.20212 23.1539 8.16889C23.5705 8.05409 23.7101 7.90908 23.8814 7.42571C23.9321 7.27768 23.9914 7.13569 24.0125 7.11152C24.0379 7.08131 24.1013 7.06923 24.2219 7.06923C24.389 7.06923 24.4017 7.06319 24.5095 6.95443C24.573 6.89401 24.6829 6.7641 24.757 6.66743L24.8902 6.49523L24.7316 6.20521C24.5053 5.78529 24.3213 5.61309 23.9681 5.48318C23.7566 5.40464 23.6741 5.32911 23.5853 5.13274C23.4922 4.92731 23.4309 4.86085 23.3061 4.83668C23.0671 4.79137 22.6801 4.54666 22.3163 4.21133C22.0816 3.99381 22.0076 3.96964 21.8468 4.06028C21.6967 4.14487 21.5423 4.14184 21.409 4.05121C21.2821 3.96662 21.225 3.88203 21.17 3.70077C21.0939 3.447 21.0072 3.37752 20.7111 3.33523C20.5567 3.31408 20.4933 3.28689 20.3727 3.19928C19.9709 2.9002 19.9349 2.87905 19.6938 2.80957C19.55 2.76727 19.4104 2.70383 19.3597 2.66153C19.3131 2.62226 19.1757 2.44402 19.0594 2.2688C18.8204 1.91232 18.7802 1.88815 18.6512 2.0241C18.5581 2.12077 18.3762 2.17213 18.1943 2.15098C17.9892 2.12681 17.8877 2.06941 17.8285 1.94555C17.801 1.88815 17.7608 1.83377 17.7375 1.82169C17.6847 1.79148 17.5853 1.8519 17.4753 1.97878C17.3632 2.10566 17.2892 2.09358 16.9825 1.89419C16.8535 1.8096 16.6801 1.70991 16.5976 1.67365C16.4559 1.61323 16.4453 1.61323 16.4072 1.66157C16.3057 1.7945 16.3374 2.0392 16.5045 2.38964C16.5764 2.54371 16.6335 2.70081 16.6526 2.80957C16.7076 3.10261 16.9148 3.64941 17.1284 4.06632C17.268 4.33821 17.3167 4.4953 17.3167 4.70073C17.3167 4.83366 17.3061 4.89106 17.2638 4.97263C17.1305 5.22942 17.1157 5.31401 17.1157 5.77018C17.1157 6.24751 17.1348 6.36835 17.2447 6.54055L17.3145 6.65233L17.2426 6.80338C17.1475 6.9937 17.1179 7.20215 17.0734 7.93022C17.0206 8.81539 16.974 9.12354 16.8112 9.67941C16.6779 10.1326 16.623 10.5948 16.6928 10.6794C16.752 10.7489 16.8831 10.7972 17.0163 10.8002C17.12 10.8002 17.1559 10.7881 17.1898 10.7398ZM9.3032 10.3138C9.33281 10.2323 9.27782 10.1416 9.11709 10.0147C8.98385 9.90598 8.94155 9.80327 8.94155 9.58575C8.94155 9.21719 8.86753 8.64017 8.77024 8.26254C8.74698 8.16587 8.68987 8.02388 8.64335 7.94533C8.57355 7.82449 8.56086 7.78219 8.56086 7.65833C8.56086 7.56166 8.57355 7.49217 8.60316 7.4378C8.62643 7.3955 8.64546 7.3381 8.64546 7.30487C8.64546 7.25351 8.62854 7.21122 8.48896 6.88797C8.3684 6.61003 8.39801 6.32001 8.56298 6.16292C8.67295 6.0602 8.68987 5.9877 8.65604 5.79133C8.61374 5.56777 8.57567 4.72792 8.58624 4.31404C8.59682 3.93037 8.60739 3.88505 8.73852 3.64941C8.83157 3.48628 8.85695 3.31106 8.85695 2.83978V2.46215L8.42974 2.4561C8.19287 2.45006 7.93062 2.45006 7.8439 2.45308C7.54781 2.46819 7.19462 2.63132 7.02543 2.83373C6.87738 3.00895 6.82451 3.01197 6.40364 2.87301L6.09698 2.77029L5.88125 3.09656C5.73109 3.32314 5.63804 3.43794 5.5767 3.47117C5.51326 3.50743 5.38002 3.53159 5.1368 3.5467C4.72016 3.57691 4.63556 3.61316 4.17239 3.96058C3.7769 4.25362 3.57598 4.36238 3.37084 4.39561C3.20587 4.4228 3.15723 4.45905 3.17838 4.54062C3.20587 4.64938 3.21222 4.81554 3.18895 4.87596C3.153 4.97565 3.07898 5.00284 2.7279 5.04211C2.35567 5.08743 2.35144 5.09045 2.23724 5.40162C2.15475 5.63121 2.04266 5.80341 1.95807 5.82758C1.81002 5.86988 1.41665 6.36533 1.35108 6.59493C1.27072 6.87286 1.52028 7.19309 2.19494 7.67042C2.3874 7.80636 2.5862 7.93627 2.63907 7.95742C2.84211 8.042 2.83365 8.03294 2.81673 8.22024C2.80615 8.35015 2.81038 8.39546 2.83153 8.41661C2.88652 8.46495 2.97323 8.4438 3.09378 8.35317C3.15934 8.30483 3.22914 8.26254 3.24606 8.26254C3.26509 8.26254 3.36449 8.31994 3.47235 8.3864C3.75152 8.56766 4.40292 8.87279 4.51924 8.87883C4.59961 8.88185 4.63133 8.86675 4.68844 8.80028C4.7265 8.75195 4.77726 8.7157 4.80476 8.7157C4.83225 8.7157 4.9105 8.79122 4.9951 8.89696C5.07335 8.99665 5.17275 9.09937 5.21505 9.12656C5.25946 9.15374 5.41174 9.18396 5.56824 9.19906C5.88125 9.23229 5.95739 9.25646 6.13716 9.38939C6.26406 9.48606 6.26617 9.48606 6.53053 9.47398C6.67647 9.46793 6.87527 9.46189 6.97255 9.45887L7.15021 9.45585L7.1777 9.61899C7.19039 9.7066 7.21366 9.79118 7.22846 9.80327C7.24327 9.81535 7.32152 9.8365 7.40611 9.84858C7.4886 9.85765 7.61338 9.89994 7.68528 9.94224C7.84813 10.0329 7.9285 10.0329 8.0702 9.93922C8.19921 9.85463 8.269 9.84556 8.30707 9.90598C8.34303 9.97245 8.48896 10.0419 8.65604 10.0752C8.76178 10.0933 8.85695 10.1416 8.99231 10.2413C9.2038 10.3924 9.26725 10.4075 9.3032 10.3138Z" fill="#3E54A4"/>
</svg>
