<svg width="6279" height="883" viewBox="0 0 6279 883" fill="none" xmlns="http://www.w3.org/2000/svg">
<path d="M5212.6 875.8C5193 866 5174.6 863.2 5124.8 861.6C5079.6 860.4 5058.4 862.2 5040.6 869C5025.6 874.6 4992.8 879.2 4956.8 880.4C4934.4 881.2 4923.4 880.8 4920.4 879.2C4912.8 875.2 4897.2 873.2 4845.6 870C4734.4 863 4706.6 857.4 4683.4 837.4C4665.6 822 4662.2 821.2 4644 828.2C4637 831 4629 831.6 4607 831.6C4576 831.6 4554.8 828 4535 819.6C4512.6 810 4491 803 4483.8 803C4476 803 4455.2 796.6 4444 791C4431.2 784.6 4415.4 780.8 4392.6 779C4366 777 4332.8 768.6 4304.8 756.8C4265.8 740.4 4252.2 737.2 4222 737C4199.8 736.8 4178.4 732.4 4160 724C4144.4 717 4142.8 716.6 4129.2 717.8C4115.8 719 4114.4 718.8 4105 713C4099.6 709.6 4089 702.2 4081.6 696.4C4074.2 690.6 4061.2 681.8 4052.6 676.6C4028.6 662.4 3946.4 623.4 3933.2 620C3926.6 618.4 3918 614.8 3913.8 612C3893.6 597.8 3828.6 535.8 3803.6 506.4C3794.6 495.8 3790 488.6 3789 483.4C3788.4 479.4 3784.2 468.2 3779.8 458.8C3775.6 449.4 3772 438.8 3772 435.2C3772 431.8 3776.4 419.2 3781.8 407.4C3792.2 384.4 3798 367.4 3798 359.2C3798 351 3808.6 334.8 3822 322.4C3848.2 298 3877.2 282.4 3915.6 272C3940.4 265.4 3949 262.2 3960 256C3962.8 254.4 3968.2 253 3972.2 253C3988.4 253 4000.4 249 4015.6 238.8C4034.2 226.4 4089.2 199 4118 187.6C4129.6 183.2 4145 178.6 4152.2 177.4C4169 174.8 4177.8 170.2 4193.4 156C4210 141.2 4226 131.6 4239.8 129C4246 127.6 4256.6 123.6 4263.4 119.8C4272.2 114.8 4277.2 113.4 4281.4 114.2C4287.6 115.4 4304.8 109.8 4331 98.2001C4351 89.4001 4377.6 81.8001 4400.8 78.0001C4431.2 73.0001 4437.2 70.2 4453 53.6C4469.6 36.4 4471.6 36 4496 44.8C4504.8 48 4516.8 51.8001 4522.6 53.0001C4534.4 55.8001 4538.6 54.4 4554.6 42.8C4559 39.6 4565.8 36 4569.8 34.8C4573.8 33.6 4599.6 32.0001 4627 31.2001C4683.8 29.4001 4688.6 28.4001 4696.8 15.4001C4705 2.20009 4707.4 2.00004 4787 2.60004C4864.2 3.00004 4899.6 5.20009 4919.2 10.4001L4932 13.8L4942.6 8.40009C4955 2.20009 4961 1.80005 4982 5.80005C5009 11 5054.2 13.4 5104.4 12.6C5151 11.6 5153.6 11.4001 5168.2 6.20007L5183.6 0.800049L5195.6 5.80005C5212.2 12.8 5228.2 15.0001 5263 15.0001C5296.4 15.0001 5306.2 13.4001 5313 7.00006C5323.4 -2.79994 5343.6 0.200085 5382 17.4001C5418 33.4001 5442.4 39.6 5524 53.8C5558.4 59.8 5576.8 65.2001 5586.2 72.0001C5605.2 85.8001 5618 89.2001 5689.8 98.0001C5769 107.8 5773.2 109.2 5803.2 132.2C5823.6 147.8 5835.6 154 5850.2 156.6C5865.4 159.4 5876 164 5919.4 185.8C5962.8 207.6 5977 212.4 6006 215C6033.2 217.6 6035 218 6037.6 223.8C6042 233.4 6080.4 258.8 6095.4 262C6100.2 263 6104.8 262 6113.2 258.2C6131.8 249.6 6140 252 6140 266C6140 273.4 6143 278.6 6154.6 290.4C6160 296 6167 305 6169.8 310.4C6172.6 315.6 6177.2 321 6180 322.2C6196.4 329.6 6197 330.2 6198.2 337C6200.6 352.2 6218.2 380.8 6251.6 425C6286.6 470.8 6286.8 481.2 6253.2 496.8C6241 502.4 6236.4 505.8 6234.4 510C6232.8 513.2 6223.6 525.8 6213.8 538.2C6195.4 561.4 6184 580.2 6184 587.8C6184 599.6 6164.8 607.8 6131 610.6C6107.8 612.6 6100.6 615.4 6085 629.2C6071 641.4 6058.6 647.8 6040.8 652.2C6026.6 655.6 6009.2 663.2 6007 667C6005 670.2 5990.6 677 5985.6 677C5974.4 677 5964.8 681.6 5955.6 691.2C5945 702.4 5935.8 707 5923.6 707C5908.4 707 5888.2 712.6 5866.2 722.8C5854.4 728.2 5837.2 735 5828.2 737.8C5807.8 744.2 5799 748.6 5779 762.8C5760.4 775.8 5747.4 780.8 5732 781C5716.6 781 5698.2 785.8 5682.4 793.8C5663.8 803.2 5659 803.8 5644 799.2C5618 791.6 5612.6 792 5565 807C5547.6 812.4 5526.6 818.4 5518.6 820C5505.4 822.8 5503.2 822.8 5495.6 819.8C5481.4 814.4 5477.6 815 5473.8 823.2C5467.6 835.8 5466.8 836.2 5432.2 835C5382.2 833.4 5357.6 834 5349 836.8C5344.6 838.2 5326 847 5307.6 856.2C5270.2 875 5248.6 883 5235.6 883C5229.6 883 5222.4 880.8 5212.6 875.8ZM4675.4 729.8C4690.6 718.6 4688.6 705 4669 687.8C4651.6 672.4 4650.6 669.6 4657 650.2C4663.4 630.4 4662.4 626.8 4645 608C4626.4 587.8 4625 584.4 4625 557.6C4625 537.6 4625.4 534.8 4629.6 529.2C4635 521.8 4635 520.2 4630 511.8C4622.8 500.2 4620 480.4 4617.8 423.2C4616.2 384.2 4616.2 363.8 4617.8 352.4C4621.4 325.6 4620.6 308.8 4615 294C4610 280.6 4610.2 277.6 4616.4 269C4618.4 266.2 4621.2 257.8 4622.8 250.2C4626.2 234.8 4629 231 4647.6 217.8C4662.6 207 4666 200.8 4668.2 180.8C4669.2 171.6 4672.4 160 4675.8 151.8C4679.4 143.4 4681 137.2 4679.8 136.2C4678.8 135 4661.4 136 4633.8 138.8C4584.6 144 4568.2 143.8 4541.8 137C4519.8 131.4 4516 132 4511.4 142C4503.8 158.2 4496.6 162.2 4486.8 155.8C4482.2 152.6 4481 152.8 4468.4 156.8C4453.2 161.8 4396.8 191.4 4379.8 203.4C4370.8 209.6 4365.6 211.6 4355.2 213.2C4347.8 214.2 4336.6 216.8 4330.4 219.2C4303 229 4301 229.4 4280 229.2C4268.4 229.2 4257.6 229.6 4255.6 230.2C4253.8 230.8 4251 234.4 4249.4 238.6C4243.8 252.6 4237.6 255.2 4200 259C4146.2 264.6 4103 282 4072 310.6C4056.4 324.8 4044.8 330.8 4032.4 331C4012.8 331 3993.2 340.8 3940 376.6C3923 388.2 3904 399.8 3898 402.8C3890 406.6 3886 410 3883.6 415C3876.4 429 3880.8 450 3893.2 461.2C3906.6 473.6 3928.2 484.4 3946.4 488C3961.8 491 3988.8 522 3995.4 544C3998.4 554.2 4009.8 558.8 4037.4 561C4050.4 562.2 4068.2 564.4 4077 566.2C4108 572.2 4142 584.2 4142 588.8C4142 590.6 4153 596.2 4172 604.2C4177 606.2 4186.8 612.4 4194 617.8C4214.2 633.2 4217 633.8 4242.4 630.8C4267.2 628 4268 628.2 4273 643C4277.8 657.4 4279.4 658.2 4294.4 651.6C4304.8 647 4309.6 646.2 4323 646.2C4349.6 646.6 4377.2 657.8 4385.8 671.6C4392.2 682 4397 683.2 4434 682.6C4470.2 682 4466.4 681 4496 697.4C4520.4 710.6 4536 715 4569 717.2C4594.4 718.8 4613.8 722.2 4620 726C4635.4 735.4 4665 737.6 4675.4 729.8ZM5527 688C5529.8 685.4 5532 681.8 5532 680.2C5532 675.4 5542 665 5546.6 665C5552.8 664.8 5566.6 658.2 5575.6 651C5586.4 642.4 5593.2 642 5621.8 647.8C5660.8 656 5663.8 655.4 5698.2 633.6C5708.6 627 5719.2 620.8 5721.8 620C5729.6 617.6 5742.8 618.6 5765.2 623.2C5785 627.2 5786.8 627.2 5794.6 624.2C5799.2 622.4 5808.6 616.4 5815.6 610.8C5836.4 594 5841 592.8 5884.8 591C5929 589.2 5934 587.8 5954.4 572.8C5971.2 560.2 5980 557 5992.4 558.4C6005.4 560 6010.6 558.2 6022 548C6034 537.4 6036.4 536 6051.8 531.2C6064.2 527.4 6088 514.4 6109 500.2C6126.4 488.4 6157.8 473 6164.2 473C6173.8 473 6176 471.2 6176 463.2C6176 459 6174.6 451 6172.8 445.2C6169 432.4 6161.6 427 6147.8 427C6136.4 427 6111 420.6 6100 415C6086.2 408 6074.8 395.8 6066.8 380C6059 364 6044.8 348.8 6033 343.8C6029.2 342.2 6020.4 341 6013.6 341C5996.2 341 5989 337 5978.8 321C5961.4 294.4 5956.8 288.6 5946.2 281C5931.4 270.2 5918.4 265.8 5884.6 259.8C5854.2 254.6 5847.4 252.2 5839 243.8L5833.8 238.6L5806.2 240C5773.8 241.6 5771.6 241 5751.2 224.2C5726.4 203.8 5717 200.8 5658 196C5588 190.2 5582.2 188.8 5547.4 169.2C5532 160.4 5518.6 159.8 5510.6 167.4C5502.4 175 5497.4 177 5483.2 178.4C5467.2 179.8 5453.8 176.6 5443.2 168.8C5434.4 162.4 5429 161.4 5427.2 166C5426 169.6 5428 175.4 5436 191.6C5442.4 204.4 5445 215.4 5447.6 241.2C5448.8 252 5451 261.4 5453.6 266.2C5466 289.4 5465 277.4 5465 399C5464.8 528.6 5464.2 534 5449 554.8C5443.4 562.2 5442.4 570.6 5446.8 572.2C5448.4 572.8 5450.6 575.8 5452 579C5455.8 588.2 5451.4 603.4 5435.2 636.2C5427.2 652.6 5420 668.4 5419.4 671.4C5416.6 682 5418.2 682.8 5443.6 682.6C5463.4 682.6 5469.4 683.2 5483 687.6C5492 690.6 5504 692.8 5510.6 692.8C5520.4 693 5523 692.2 5527 688Z" fill="#3E54A4"/>
<path d="M1378 869C1372.2 864 1375.6 864.2 1297 864H1231L1214.2 858.6C1164.6 842.4 1060.2 832.4 1035.2 841.6C1024 845.6 1018 845 995.8 837C975.2 829.4 941 822 904.2 817C867.6 812.2 847.4 812 827.8 816C811 819.6 807.4 818.8 798 810C788.2 800.8 783.6 798.8 776.6 800.8C767.6 803.4 758 799 742 785.2C725.8 771.4 722.2 770.6 705.6 777.2C690.2 783.4 662.8 787 632 787C607.4 786.8 604.2 786.4 595 782C588.2 778.6 581.6 777 574.4 777C563.6 777 550 772.8 550 769.4C550 763 488.4 738.8 461.6 734.8C445.8 732.4 438.6 728.6 422.2 714.2C410.6 703.8 392.4 694.8 374.4 690C349.6 683.6 264.4 651.2 251.6 643.4C247.6 641 236.8 632 227.6 623.8C204.2 602.4 197.8 599.2 176.6 597C140.8 593.2 116.6 579.2 95 550C81.8 532.2 73.8 526.4 55.2 520.8C36 515 32 510.6 32 494.4C32 478.6 30 476.6 13.6 475.4C6 474.8 1.2 473.6 0.600001 471.8C-2 465 26.6 416.2 35.2 413C38 411.8 40.4 408.8 41 405.6C43.2 396 46.6 390.6 59 377.4C65.8 370 74 358.4 78 350.4C86.8 332.6 103.2 317.8 147.6 288.2C165 276.6 186.2 261.2 195 254C203.8 246.6 215 238.6 220 236C231.2 230.4 255.8 222.6 277 218C297.8 213.4 313.6 205.8 331.4 191.4C356.8 171 394 153.4 421 149C444.6 145 451.8 142.6 464.6 134.4C478 125.6 496.4 119 507 119C518.4 119 533.6 115 541 109.8C551 103 565 99.6 599 95.2C633.4 90.8 655.6 85.6 680.2 76C701.8 67.6 718 64.8 737.8 66.4C757 67.8 769.4 65.2 791.8 54.8C815 44 827.4 41.2 860.2 39.2C890.8 37.2 887.2 38.4 923 19C934.8 12.8 935.4 12.6 955 13.6C970.8 14.4 979.8 16 998 22C1040.6 35.6 1046.6 36 1068 27.8C1075.8 24.8 1088 24.2 1155 23C1230.8 21.6 1233.4 21.4 1245 16.8C1257 12 1257 12 1342 12C1427.8 12 1453.4 13.4 1485 20.2C1508 25.2 1524.8 24.6 1540 18C1549 14 1556.6 12.2 1564.4 12.2C1574.8 12 1576.4 12.6 1583 19C1587 22.8 1593 31 1596 37.2C1605 54.8 1605.2 54.8 1627.8 47.2C1640.6 42.8 1653.4 40.2 1664.6 39.2C1713.6 35.4 1769 47.4 1799.6 68.6C1823.6 85 1859.8 99 1888.8 103C1905.6 105.4 1920.2 112 1946.4 128.6C1992.6 158 2019 168.8 2069.4 179C2120.4 189.4 2155.8 200.4 2173.6 211.8C2184 218.4 2186.8 222.4 2186.4 230C2185.8 238 2187.2 238.8 2211 241.2C2231.4 243.2 2249.4 250.8 2276.6 268.6C2300.8 284.4 2312.8 289.4 2331 291.2C2350.2 293 2355.2 294.8 2364.8 303.2C2373.4 310.6 2378 318.6 2378 326C2378 334.8 2387.2 341.8 2407 348.2C2426.4 354.2 2436 361.4 2436 369.4C2436 375.4 2442.6 386.4 2451 394.4C2461.4 404 2461.6 408.6 2453 430.6C2441.8 458.8 2423.6 494 2412.2 509.2C2395 532.4 2315.6 602 2293.8 613.2C2289.6 615.2 2284.8 617 2283 617C2281.2 617 2275.6 621 2270.2 626C2260 635.6 2247.8 641 2236.6 641C2227.8 641 2202.4 649.6 2187.4 657.4C2171 666.2 2164.8 674 2163 688.2C2162 697 2160.4 701 2156 705.4C2149.6 711.8 2145 712.4 2134.4 707.8C2123.6 703.2 2109 704 2086.6 710.6C2066.4 716.8 2031.4 724.4 1998 730C1965 735.6 1958.6 738.2 1944 753.2C1928.8 768.8 1931.6 768 1875 770C1834.4 771.2 1820 774 1795.4 785.2C1785.4 789.8 1769.8 794.8 1761 796.6C1738.2 800.8 1730.6 804.4 1722.8 814.8C1719 819.6 1714.2 824.8 1712 826.4C1705.6 831 1690 832.8 1640.6 835C1555.6 838.6 1500.2 843.4 1456 851.2C1427.2 856.2 1414.2 859.8 1399 867.2C1384.8 874 1384 874.2 1378 869ZM1626 723C1628.2 720.8 1630 718.2 1630 717.2C1630 713.6 1645.4 708.4 1666.8 704.6C1697.6 699.4 1709 695.4 1718.8 686.6C1730 676.4 1736.2 676.4 1743.6 687C1746.6 691.4 1750.4 695.4 1752.4 696C1754.2 696.6 1765.2 693.2 1776.6 688.2C1788.2 683.2 1807 676.4 1818.4 672.8C1845.6 664.4 1862.4 656.8 1875.6 646.4L1886.6 638L1905.8 638.2C1916.4 638.2 1936.2 638.6 1950 639.2C1973.6 640 1975.4 639.8 1981 635.4C1986 631.8 1992 630.4 2013 628C2036.2 625.4 2039.6 624.6 2047 619.2C2076.6 597.2 2140.4 562.8 2158.6 559C2164.4 558 2178.4 555 2190 552.8C2229.4 545.2 2242.6 535.6 2258.8 503.6C2263.6 493.8 2269.2 484.4 2271.2 482.8C2273.6 480.8 2279.6 480 2291 480C2306.8 480 2308 479.6 2318.2 472.4C2324.2 468.4 2334.6 459.8 2341.6 453.4L2354.2 442L2339.2 422.8C2317.8 395 2300.4 383.6 2267 375C2247 369.8 2239.2 364.8 2230.8 351.8C2222 338.2 2216.2 333.8 2204.4 332.2C2181.8 329.2 2145.2 313 2110.8 290.8C2088.6 276.4 2081.6 274.8 2066.4 280.8C2052.2 286.4 2037.6 286.2 2025 280.2C2013 274.6 2007.6 269 2002.4 257C1995.2 240.2 1987 235.6 1959 232.8C1944.4 231.4 1938.4 229.6 1927 223.8C1889 204 1885.6 202.6 1862.8 198C1849.2 195.2 1836 191 1831.2 188.2C1826.8 185.6 1813.8 173.8 1802.8 162.2C1780.2 138.6 1776.4 137 1764.2 146C1755.4 152.4 1738.2 155.8 1721 154.4C1701.6 152.8 1692 149 1686.4 140.8C1683.8 137 1680 133.4 1677.8 132.6C1672.8 130.6 1663.4 134.6 1653 143C1642.4 151.4 1635.4 150.6 1606.4 137.4C1594.2 131.8 1577.8 125.2 1570 122.8C1556.6 118.8 1555.6 118.8 1552 122C1542.4 130.8 1545.4 147 1561.2 170.2C1568 180.4 1573.4 190.8 1575.2 198C1580.4 217.4 1600 253.6 1620.2 281.2C1633.4 299.2 1638 309.6 1638 323.2C1638 332 1637 335.8 1633 341.2C1620.4 358.2 1619 363.8 1619 394C1619 425.6 1620.8 433.6 1631.2 445L1637.8 452.4L1631 462.4C1622 475 1619.2 488.8 1615 537C1610 595.6 1605.6 616 1590.2 652.8C1577.6 682.8 1572.4 713.4 1579 719C1584.6 723.6 1597 726.8 1609.6 727C1619.4 727 1622.8 726.2 1626 723ZM880.2 694.8C883 689.4 877.8 683.4 862.6 675C850 667.8 846 661 846 646.6C846 622.2 839 584 829.8 559C827.6 552.6 822.2 543.2 817.8 538C811.2 530 810 527.2 810 519C810 512.6 811.2 508 814 504.4C816.2 501.6 818 497.8 818 495.6C818 492.2 816.4 489.4 803.2 468C791.8 449.6 794.6 430.4 810.2 420C820.6 413.2 822.2 408.4 819 395.4C815 380.6 811.4 325 812.4 297.6C813.4 272.2 814.4 269.2 826.8 253.6C835.6 242.8 838 231.2 838 200V175L797.6 174.6C775.2 174.2 750.4 174.2 742.2 174.4C714.2 175.4 680.8 186.2 664.8 199.6C650.8 211.2 645.8 211.4 606 202.2L577 195.4L556.6 217C542.4 232 533.6 239.6 527.8 241.8C521.8 244.2 509.2 245.8 486.2 246.8C446.8 248.8 438.8 251.2 395 274.2C357.6 293.6 338.6 300.8 319.2 303C303.6 304.8 299 307.2 301 312.6C303.6 319.8 304.2 330.8 302 334.8C298.6 341.4 291.6 343.2 258.4 345.8C223.2 348.8 222.8 349 212 369.6C204.2 384.8 193.6 396.2 185.6 397.8C171.6 400.6 134.4 433.4 128.2 448.6C120.6 467 144.2 488.2 208 519.8C226.2 528.8 245 537.4 250 538.8C269.2 544.4 268.4 543.8 266.8 556.2C265.8 564.8 266.2 567.8 268.2 569.2C273.4 572.4 281.6 571 293 565C299.2 561.8 305.8 559 307.4 559C309.2 559 318.6 562.8 328.8 567.2C355.2 579.2 416.8 599.4 427.8 599.8C435.4 600 438.4 599 443.8 594.6C447.4 591.4 452.2 589 454.8 589C457.4 589 464.8 594 472.8 601C480.2 607.6 489.6 614.4 493.6 616.2C497.8 618 512.2 620 527 621C556.6 623.2 563.8 624.8 580.8 633.6C592.8 640 593 640 618 639.2C631.8 638.8 650.6 638.4 659.8 638.2L676.6 638L679.2 648.8C680.4 654.6 682.6 660.2 684 661C685.4 661.8 692.8 663.2 700.8 664C708.6 664.6 720.4 667.4 727.2 670.2C742.6 676.2 750.2 676.2 763.6 670C775.8 664.4 782.4 663.8 786 667.8C789.4 672.2 803.2 676.8 819 679C829 680.2 838 683.4 850.8 690C870.8 700 876.8 701 880.2 694.8Z" fill="#3E54A4"/>
</svg>
