<svg width="24" height="24" viewBox="0 0 24 24" fill="none" xmlns="http://www.w3.org/2000/svg">
<path fill-rule="evenodd" clip-rule="evenodd" d="M8 3.24268H16C18.7614 3.24268 21 5.48126 21 8.24268V16.2427C21 19.0041 18.7614 21.2427 16 21.2427H8C5.2386 21.2427 3 19.0041 3 16.2427V8.24268C3 5.48126 5.2386 3.24268 8 3.24268ZM4.75 16.2427C4.7555 18.0353 6.2074 19.4872 8 19.4927H16C17.7926 19.4872 19.2445 18.0353 19.25 16.2427V8.24268C19.2445 6.45003 17.7926 4.99817 16 4.99268H8C6.2074 4.99817 4.7555 6.45003 4.75 8.24268V16.2427ZM7.25 8.49268C6.6977 8.49268 6.25 8.04496 6.25 7.49268C6.25 6.9404 6.6977 6.49268 7.25 6.49268C7.8023 6.49268 8.25 6.9404 8.25 7.49268C8.25 8.04496 7.8023 8.49268 7.25 8.49268ZM12 7.74268C14.4853 7.74268 16.5 9.7574 16.5 12.2427C16.5 14.728 14.4853 16.7427 12 16.7427C9.5147 16.7427 7.5 14.728 7.5 12.2427C7.4973 11.0484 7.9706 9.90225 8.8151 9.05776C9.6596 8.21327 10.8057 7.74002 12 7.74268ZM14.75 12.2427C14.75 13.7615 13.5188 14.9927 12 14.9927C10.4812 14.9927 9.25 13.7615 9.25 12.2427C9.25 10.7239 10.4812 9.49268 12 9.49268C13.5188 9.49268 14.75 10.7239 14.75 12.2427Z" fill="#0E0E0C"/>
</svg>
