<svg width="117" height="117" viewBox="0 0 117 117" fill="none" xmlns="http://www.w3.org/2000/svg">
<g clip-path="url(#clip0_9800_3)">
<path d="M51.1875 0H36.7087C35.6557 5.22844 32.76 11.8243 27.6778 18.369C22.7053 24.7821 16.1094 29.25 7.31248 29.25V43.875C20.1313 43.875 29.7619 37.9226 36.5625 30.5004V80.4375C36.5625 87.6689 38.7068 94.7379 42.7244 100.751C46.7419 106.763 52.4522 111.45 59.1331 114.217C65.814 116.984 73.1655 117.708 80.258 116.297C87.3504 114.887 93.8652 111.404 98.9786 106.291C104.092 101.178 107.574 94.6629 108.985 87.5705C110.396 80.4781 109.672 73.1266 106.904 66.4456C104.137 59.7647 99.4507 54.0544 93.438 50.0369C87.4253 46.0193 80.3564 43.875 73.125 43.875V58.5C77.4638 58.5 81.7052 59.7866 85.3128 62.1971C88.9204 64.6077 91.7322 68.0338 93.3926 72.0424C95.053 76.0509 95.4874 80.4618 94.641 84.7173C93.7945 88.9727 91.7052 92.8816 88.6371 95.9497C85.5691 99.0177 81.6602 101.107 77.4048 101.953C73.1493 102.8 68.7384 102.365 64.7299 100.705C60.7213 99.0447 57.2951 96.2329 54.8846 92.6253C52.4741 89.0177 51.1875 84.7763 51.1875 80.4375V0Z" fill="#0E0E0C"/>
</g>
<defs>
<clipPath id="clip0_9800_3">
<rect width="117" height="117" fill="white" transform="matrix(-1 0 0 1 117 0)"/>
</clipPath>
</defs>
</svg>
